<?xml version="1.0" encoding="UTF-8" standalone="no"?>
<svg
   width="105.003"
   height="20.143"
   viewBox="0 0 105.003 20.143"
   version="1.1"
   id="SVGRoot"
   inkscape:version="1.2.2 (732a01da63, 2022-12-09)"
   sodipodi:docname="wiki_wordmark.svg"
   inkscape:export-filename="wiki_wordmark.png"
   inkscape:export-xdpi="96"
   inkscape:export-ydpi="96"
   xmlns:inkscape="http://www.inkscape.org/namespaces/inkscape"
   xmlns:sodipodi="http://sodipodi.sourceforge.net/DTD/sodipodi-0.dtd"
   xmlns:xlink="http://www.w3.org/1999/xlink"
   xmlns="http://www.w3.org/2000/svg"
   xmlns:svg="http://www.w3.org/2000/svg"
   xmlns:rdf="http://www.w3.org/1999/02/22-rdf-syntax-ns#"
   xmlns:cc="http://creativecommons.org/ns#"
   xmlns:dc="http://purl.org/dc/elements/1.1/">
  <sodipodi:namedview
     id="base"
     pagecolor="#ffffff"
     bordercolor="#666666"
     borderopacity="1.0"
     inkscape:pageopacity="0.0"
     inkscape:pageshadow="2"
     inkscape:zoom="3.874433"
     inkscape:cx="118.21085"
     inkscape:cy="8.259273"
     inkscape:document-units="px"
     inkscape:current-layer="g2477"
     showgrid="false"
     inkscape:window-width="1830"
     inkscape:window-height="755"
     inkscape:window-x="77"
     inkscape:window-y="118"
     inkscape:window-maximized="0"
     inkscape:grid-bbox="true"
     inkscape:object-paths="true"
     inkscape:snap-global="false"
     inkscape:document-rotation="0"
     showguides="false"
     inkscape:showpageshadow="2"
     inkscape:pagecheckerboard="0"
     inkscape:deskcolor="#d1d1d1" />
  <defs
     id="defs815">
    <linearGradient
       inkscape:collect="always"
       id="linearGradient985-7">
      <stop
         style="stop-color:#8f8f8f;stop-opacity:1;"
         offset="0"
         id="stop981" />
      <stop
         style="stop-color:#52820e;stop-opacity:1"
         offset="1"
         id="stop983" />
    </linearGradient>
    <linearGradient
       inkscape:collect="always"
       xlink:href="#linearGradient985-7"
       id="linearGradient987"
       x1="-18.140921"
       y1="15.951627"
       x2="-2.6988106"
       y2="8.1218491"
       gradientUnits="userSpaceOnUse" />
  </defs>
  <metadata
     id="metadata818">
    <rdf:RDF>
      <cc:Work
         rdf:about="">
        <dc:format>image/svg+xml</dc:format>
        <dc:type
           rdf:resource="http://purl.org/dc/dcmitype/StillImage" />
      </cc:Work>
    </rdf:RDF>
  </metadata>
  <g
     id="layer1"
     inkscape:groupmode="layer"
     inkscape:label="Layer 1">
    <g
       id="g1007"
       transform="matrix(0.86413673,0,0,0.86413673,18.035178,3.425533)"
       style="stroke-width:1.15723" />
    <g
       id="g2477"
       transform="matrix(4.9830241,0,0,4.9830241,0.20376656,-99.592578)"
       style="stroke-width:0.200682"
       inkscape:export-filename="/Users/peter/taioanpit_project/taioanpit/w/resources/assets/wiki_wordmark.png"
       inkscape:export-xdpi="576"
       inkscape:export-ydpi="576">
      <text
         xml:space="preserve"
         style="font-size:2.40818px;font-family:'Linux Libertine';-inkscape-font-specification:'Linux Libertine';fill:#054200;stroke-width:0.0402731;stroke-linecap:square;stroke-linejoin:bevel"
         x="0.030766958"
         y="18.230724"
         id="text458"><tspan
           sodipodi:role="line"
           id="tspan456"
           style="stroke-width:0.0402731"
           x="0.030766958"
           y="18.230724" /></text>
      <g
         id="g570"
         transform="translate(-0.04570177,0.06352693)">
        <path
           d="m 1.048497,21.761123 q 0,-0.577154 -0.038477,-0.709419 -0.29579159,0 -0.54589177,0.01683 -0.24769538,0.01683 -0.34869737,0.03367 l -0.101002,0.01683 -0.00961924,-0.01924 q 0.01442886,-0.113026 0,-0.324649 l 0.00961924,-0.01443 q 0.11783566,0.01443 0.29579156,0.01443 H 2.21002 q 0.1779559,0 0.2957916,-0.01443 l 0.00962,0.01443 q -0.014429,0.211623 0,0.324649 l -0.00962,0.01924 q -0.3342686,-0.06974 -0.9955912,-0.06733 -0.038477,0.132265 -0.038477,0.709419 v 1.204809 q 0,0.63487 0.050501,0.985972 l -0.012024,0.01443 q -0.088978,-0.01443 -0.2525049,-0.01443 -0.1611223,0 -0.2476954,0.01443 L 0.997996,23.951904 q 0.0480962,-0.334268 0.050501,-0.985972 z"
           style="font-style:normal;font-variant:normal;font-weight:normal;font-stretch:normal;font-size:4.92505px;line-height:125%;font-family:'Linux Biolinum';-inkscape-font-specification:'Linux Biolinum';letter-spacing:0px;word-spacing:0px;fill:#000000;fill-opacity:1;stroke:none;stroke-width:0.185319px;stroke-linecap:butt;stroke-linejoin:miter;stroke-opacity:1"
           id="path2459" />
        <path
           d="m 4.0977954,19.986373 q 0.202004,0.240481 0.4953908,0.464129 l -0.076954,0.103407 Q 4.2108215,20.412025 3.9943886,20.248498 3.7490981,20.431263 3.4653305,20.553909 l -0.067335,-0.103407 q 0.2116232,-0.158718 0.4881763,-0.464129 z m 0.3006012,2.609219 Q 4.292585,22.319039 4.1675349,22.016033 4.0448896,21.713027 3.9006011,21.381163 h -0.00962 L 3.371543,22.593187 q 0.057715,0 0.2452905,0.0048 0.1875752,0.0048 0.2693387,0.0048 0.2092184,0 0.5122244,-0.0072 z m -1.123046,0.230861 q -0.1418838,0.348698 -0.2476954,0.637275 -0.1058116,0.288577 -0.1611222,0.502605 -0.06012,-0.01443 -0.2236473,-0.01443 -0.113026,0 -0.1707415,0.01443 0.8368737,-1.837274 1.4525049,-3.256112 h 0.1370742 q 0.1683366,0.399199 0.4761523,1.163928 0.3078156,0.762325 0.5362725,1.32024 0.2284569,0.555511 0.3366733,0.771944 -0.084168,-0.01443 -0.2933868,-0.01443 -0.163527,0 -0.2476953,0.01443 -0.00962,-0.03367 -0.024048,-0.07695 -0.012024,-0.04569 -0.036072,-0.12024 -0.021643,-0.07695 -0.052906,-0.170742 -0.031263,-0.09619 -0.069739,-0.209218 -0.038477,-0.115431 -0.091383,-0.262124 -0.050501,-0.146694 -0.1082164,-0.300602 -0.1611223,-0.0048 -0.3054108,-0.0048 -0.1442886,-0.0024 -0.2717435,-0.0024 -0.2813627,0 -0.6348697,0.0072 z"
           style="font-style:normal;font-variant:normal;font-weight:normal;font-stretch:normal;font-size:4.92505px;line-height:125%;font-family:'Linux Biolinum';-inkscape-font-specification:'Linux Biolinum';letter-spacing:0px;word-spacing:0px;fill:#000000;fill-opacity:1;stroke:none;stroke-width:0.185319px;stroke-linecap:butt;stroke-linejoin:miter;stroke-opacity:1"
           id="path2461" />
        <path
           d="m 6.0024044,21.761123 q 0,-0.63487 -0.048096,-0.985972 l 0.00962,-0.01443 q 0.088978,0.01443 0.2501001,0.01443 0.1635271,0 0.252505,-0.01443 l 0.00962,0.01443 q -0.048096,0.324649 -0.050501,0.985972 v 1.204809 q 0,0.63487 0.050501,0.985972 l -0.00962,0.01443 q -0.088978,-0.01443 -0.252505,-0.01443 -0.163527,0 -0.2501001,0.01443 l -0.00962,-0.01443 q 0.048096,-0.334268 0.048096,-0.985972 z"
           style="font-style:normal;font-variant:normal;font-weight:normal;font-stretch:normal;font-size:4.92505px;line-height:125%;font-family:'Linux Biolinum';-inkscape-font-specification:'Linux Biolinum';letter-spacing:0px;word-spacing:0px;fill:#000000;fill-opacity:1;stroke:none;stroke-width:0.185319px;stroke-linecap:butt;stroke-linejoin:miter;stroke-opacity:1"
           id="path2463" />
        <path
           d="m 8.6909816,20.929059 q -0.404008,0 -0.69499,0.346292 -0.2909819,0.346293 -0.2909819,1.065331 0,0.675751 0.3390781,1.060521 0.341483,0.382365 0.8152304,0.382365 0.4328657,0 0.6997996,-0.355912 0.2693387,-0.358317 0.2693387,-1.002806 0,-0.747895 -0.3006012,-1.120641 -0.3006012,-0.37515 -0.8368737,-0.37515 z m 1.6448894,1.402004 q 0,0.738276 -0.4352703,1.204809 Q 9.4653302,24 8.7607211,24 8.1066129,24 7.6521039,23.567135 7.1975949,23.134269 7.1975949,22.42485 q 0,-0.723847 0.4472946,-1.219238 0.4496993,-0.495391 1.1110219,-0.495391 0.6757515,0 1.1278557,0.452104 0.4521039,0.4497 0.4521039,1.168738 z"
           style="font-style:normal;font-variant:normal;font-weight:normal;font-stretch:normal;font-size:4.92505px;line-height:125%;font-family:'Linux Biolinum';-inkscape-font-specification:'Linux Biolinum';letter-spacing:0px;word-spacing:0px;fill:#000000;fill-opacity:1;stroke:none;stroke-width:0.185319px;stroke-linecap:butt;stroke-linejoin:miter;stroke-opacity:1"
           id="path2465" />
        <path
           d="m 12.149098,19.986373 q 0.202004,0.240481 0.495391,0.464129 l -0.07695,0.103407 q -0.305411,-0.141884 -0.521844,-0.305411 -0.245291,0.182765 -0.529058,0.305411 l -0.06733,-0.103407 q 0.211624,-0.158718 0.488177,-0.464129 z m 0.300601,2.609219 q -0.105812,-0.276553 -0.230862,-0.579559 -0.122645,-0.303006 -0.266934,-0.63487 h -0.0096 l -0.519439,1.212024 q 0.05772,0 0.245291,0.0048 0.187575,0.0048 0.269339,0.0048 0.209218,0 0.512224,-0.0072 z m -1.123046,0.230861 q -0.141884,0.348698 -0.247695,0.637275 -0.105812,0.288577 -0.161123,0.502605 -0.06012,-0.01443 -0.223647,-0.01443 -0.113026,0 -0.170741,0.01443 0.836873,-1.837274 1.452505,-3.256112 h 0.137074 q 0.168336,0.399199 0.476152,1.163928 0.307816,0.762325 0.536273,1.32024 0.228456,0.555511 0.336673,0.771944 -0.08417,-0.01443 -0.293387,-0.01443 -0.163527,0 -0.247695,0.01443 -0.0096,-0.03367 -0.02405,-0.07695 -0.01202,-0.04569 -0.03607,-0.12024 -0.02164,-0.07695 -0.0529,-0.170742 -0.03126,-0.09619 -0.06974,-0.209218 -0.03848,-0.115431 -0.09138,-0.262124 -0.0505,-0.146694 -0.108216,-0.300602 -0.161122,-0.0048 -0.305411,-0.0048 -0.144288,-0.0024 -0.271743,-0.0024 -0.281363,0 -0.63487,0.0072 z"
           style="font-style:normal;font-variant:normal;font-weight:normal;font-stretch:normal;font-size:4.92505px;line-height:125%;font-family:'Linux Biolinum';-inkscape-font-specification:'Linux Biolinum';letter-spacing:0px;word-spacing:0px;fill:#000000;fill-opacity:1;stroke:none;stroke-width:0.185319px;stroke-linecap:butt;stroke-linejoin:miter;stroke-opacity:1"
           id="path2467" />
        <path
           d="m 14.072945,20.775151 0.0096,-0.01443 q 0.03848,0.01443 0.206814,0.01443 0,0 0.06974,-0.0096 l 1.688176,2.185972 q 0.197195,0.254909 0.233267,0.271743 0.03607,0.01683 0.0481,-0.04569 0.0072,-0.03607 0.0096,-0.103407 v -1.313026 q 0,-0.63487 -0.0481,-0.985972 l 0.0096,-0.01443 q 0.08898,0.01443 0.170742,0.01443 0.08417,0 0.173146,-0.01443 l 0.0096,0.01443 q -0.02886,0.38477 -0.04569,0.805611 -0.01683,0.420842 -0.02164,0.6998 -0.0048,0.276553 -0.01683,0.788777 -0.0096,0.512225 -0.01443,0.779158 Q 16.54504,24 16.46092,24 16.338274,24 16.249296,23.882165 l -1.717034,-2.171543 q -0.07455,-0.0986 -0.110621,-0.134669 -0.03367,-0.03848 -0.05531,-0.02405 -0.02164,0.01202 -0.02405,0.06253 -0.0024,0.0481 -0.0024,0.175552 v 1.175951 q 0,0.63487 0.0481,0.985972 l -0.0096,0.01443 q -0.08898,-0.01443 -0.173147,-0.01443 -0.08176,0 -0.170741,0.01443 l -0.0096,-0.01443 q 0.06012,-0.572344 0.06974,-1.531863 0.01202,-0.959519 -0.02164,-1.64489 z"
           style="font-style:normal;font-variant:normal;font-weight:normal;font-stretch:normal;font-size:4.92505px;line-height:125%;font-family:'Linux Biolinum';-inkscape-font-specification:'Linux Biolinum';letter-spacing:0px;word-spacing:0px;fill:#000000;fill-opacity:1;stroke:none;stroke-width:0.185319px;stroke-linecap:butt;stroke-linejoin:miter;stroke-opacity:1"
           id="path2469" />
        <g
           aria-label="K"
           id="text462"
           style="font-size:4.93067px;font-family:'Linux Libertine';-inkscape-font-specification:'Linux Libertine';fill:#054200;stroke-width:0.0824578;stroke-linecap:square;stroke-linejoin:bevel">
          <path
             d="m 17.368226,21.757402 q 0,-0.635594 -0.04815,-0.987097 l 0.0096,-0.01445 q 0.08908,0.01445 0.250386,0.01445 0.163714,0 0.252793,-0.01445 l 0.0096,0.01445 q -0.04815,0.32502 -0.05056,0.987097 v 0.495956 q 0.065,-0.0072 0.10834,-0.04334 0.577812,-0.503178 1.406011,-1.454162 0.065,0.01445 0.240755,0.01445 0.173344,0 0.252793,-0.01445 -1.015987,0.893202 -1.499906,1.449347 v 0.0096 l 1.548057,1.750292 q -0.09389,-0.01445 -0.305759,-0.01445 -0.221495,0 -0.305759,0.01445 -1.080992,-1.331377 -1.350638,-1.601023 -0.02889,-0.02408 -0.09389,-0.03371 v 0.633187 q 0,0.635594 0.05056,0.987097 l -0.0096,0.01445 q -0.08908,-0.01445 -0.252793,-0.01445 -0.163714,0 -0.250386,0.01445 l -0.0096,-0.01445 q 0.04815,-0.33465 0.04815,-0.987097 z"
             style="font-family:'Linux Biolinum';-inkscape-font-specification:'Linux Biolinum'"
             id="path477" />
        </g>
        <g
           aria-label="Ì"
           id="text466"
           style="font-size:4.93067px;font-family:'Linux Libertine';-inkscape-font-specification:'Linux Libertine';fill:#054200;stroke-width:0.0824578;stroke-linecap:square;stroke-linejoin:bevel">
          <path
             d="m 20.431653,21.757402 q 0,-0.635594 -0.04815,-0.987097 l 0.0096,-0.01445 q 0.08908,0.01445 0.250386,0.01445 0.163714,0 0.252793,-0.01445 l 0.0096,0.01445 q -0.04815,0.32502 -0.05056,0.987097 v 1.206185 q 0,0.635594 0.05056,0.987097 l -0.0096,0.01445 q -0.08908,-0.01445 -0.252793,-0.01445 -0.163714,0 -0.250386,0.01445 l -0.0096,-0.01445 q 0.04815,-0.33465 0.04815,-0.987097 z m -0.02407,-1.834556 0.597073,0.4141 q 0.07463,0.05537 0.07223,0.103524 0,0.02889 -0.02167,0.05297 -0.02167,0.02167 -0.05056,0.02167 -0.07463,0 -0.214272,-0.06019 l -0.75838,-0.310575 q 0.154084,-0.14686 0.375579,-0.221495 z"
             style="font-family:'Linux Biolinum';-inkscape-font-specification:'Linux Biolinum'"
             id="path529" />
        </g>
      </g>
    </g>
  </g>
</svg>
