<?xml version="1.0" encoding="UTF-8" standalone="no"?>
<svg
   xmlns:dc="http://purl.org/dc/elements/1.1/"
   xmlns:cc="http://creativecommons.org/ns#"
   xmlns:rdf="http://www.w3.org/1999/02/22-rdf-syntax-ns#"
   xmlns:svg="http://www.w3.org/2000/svg"
   xmlns="http://www.w3.org/2000/svg"
   xmlns:xlink="http://www.w3.org/1999/xlink"
   xmlns:sodipodi="http://sodipodi.sourceforge.net/DTD/sodipodi-0.dtd"
   xmlns:inkscape="http://www.inkscape.org/namespaces/inkscape"
   width="120"
   height="20"
   viewBox="0 0 120 20"
   version="1.1"
   id="SVGRoot"
   inkscape:version="1.0.1 (c497b03c, 2020-09-10)"
   sodipodi:docname="wiki_wordmark.svg"
   inkscape:export-filename="/Users/peter/taioanpit_project/taioanpit/resources/assets/wiki.png"
   inkscape:export-xdpi="540"
   inkscape:export-ydpi="540">
  <sodipodi:namedview
     id="base"
     pagecolor="#ffffff"
     bordercolor="#666666"
     borderopacity="1.0"
     inkscape:pageopacity="0.0"
     inkscape:pageshadow="2"
     inkscape:zoom="2.8536396"
     inkscape:cx="65.953197"
     inkscape:cy="30.937996"
     inkscape:document-units="px"
     inkscape:current-layer="layer1"
     showgrid="false"
     inkscape:window-width="1280"
     inkscape:window-height="755"
     inkscape:window-x="0"
     inkscape:window-y="23"
     inkscape:window-maximized="0"
     inkscape:grid-bbox="true"
     inkscape:object-paths="true"
     inkscape:snap-global="false"
     inkscape:document-rotation="0"
     showguides="false" />
  <defs
     id="defs815">
    <linearGradient
       inkscape:collect="always"
       id="linearGradient985-7">
      <stop
         style="stop-color:#8f8f8f;stop-opacity:1;"
         offset="0"
         id="stop981" />
      <stop
         style="stop-color:#52820e;stop-opacity:1"
         offset="1"
         id="stop983" />
    </linearGradient>
    <linearGradient
       inkscape:collect="always"
       xlink:href="#linearGradient985-7"
       id="linearGradient987"
       x1="-18.140921"
       y1="15.951627"
       x2="-2.6988106"
       y2="8.1218491"
       gradientUnits="userSpaceOnUse" />
  </defs>
  <metadata
     id="metadata818">
    <rdf:RDF>
      <cc:Work
         rdf:about="">
        <dc:format>image/svg+xml</dc:format>
        <dc:type
           rdf:resource="http://purl.org/dc/dcmitype/StillImage" />
        <dc:title></dc:title>
      </cc:Work>
    </rdf:RDF>
  </metadata>
  <g
     id="layer1"
     inkscape:groupmode="layer"
     inkscape:label="Layer 1">
    <g
       id="g1007"
       transform="matrix(0.86413673,0,0,0.86413673,18.035178,3.425533)"
       style="stroke-width:1.15723" />
    <g
       id="g2477"
       transform="matrix(4.9830241,0,0,4.9830241,0.20376656,-99.592578)"
       style="stroke-width:0.200682"
       inkscape:export-filename="/Users/peter/taioanpit_project/taioanpit/w/resources/assets/wiki_wordmark.png"
       inkscape:export-xdpi="576"
       inkscape:export-ydpi="576">
      <path
         d="m 1.048497,21.761123 q 0,-0.577154 -0.038477,-0.709419 -0.29579159,0 -0.54589177,0.01683 -0.24769538,0.01683 -0.34869737,0.03367 l -0.101002,0.01683 -0.00961924,-0.01924 q 0.01442886,-0.113026 0,-0.324649 l 0.00961924,-0.01443 q 0.11783566,0.01443 0.29579156,0.01443 H 2.21002 q 0.1779559,0 0.2957916,-0.01443 l 0.00962,0.01443 q -0.014429,0.211623 0,0.324649 l -0.00962,0.01924 q -0.3342686,-0.06974 -0.9955912,-0.06733 -0.038477,0.132265 -0.038477,0.709419 v 1.204809 q 0,0.63487 0.050501,0.985972 l -0.012024,0.01443 q -0.088978,-0.01443 -0.2525049,-0.01443 -0.1611223,0 -0.2476954,0.01443 L 0.997996,23.951904 q 0.0480962,-0.334268 0.050501,-0.985972 z"
         style="font-style:normal;font-variant:normal;font-weight:normal;font-stretch:normal;font-size:4.92505px;line-height:125%;font-family:'Linux Biolinum';-inkscape-font-specification:'Linux Biolinum';letter-spacing:0px;word-spacing:0px;fill:#000000;fill-opacity:1;stroke:none;stroke-width:0.185319px;stroke-linecap:butt;stroke-linejoin:miter;stroke-opacity:1"
         id="path2459" />
      <path
         d="m 4.0977954,19.986373 q 0.202004,0.240481 0.4953908,0.464129 l -0.076954,0.103407 Q 4.2108215,20.412025 3.9943886,20.248498 3.7490981,20.431263 3.4653305,20.553909 l -0.067335,-0.103407 q 0.2116232,-0.158718 0.4881763,-0.464129 z m 0.3006012,2.609219 Q 4.292585,22.319039 4.1675349,22.016033 4.0448896,21.713027 3.9006011,21.381163 h -0.00962 L 3.371543,22.593187 q 0.057715,0 0.2452905,0.0048 0.1875752,0.0048 0.2693387,0.0048 0.2092184,0 0.5122244,-0.0072 z m -1.123046,0.230861 q -0.1418838,0.348698 -0.2476954,0.637275 -0.1058116,0.288577 -0.1611222,0.502605 -0.06012,-0.01443 -0.2236473,-0.01443 -0.113026,0 -0.1707415,0.01443 0.8368737,-1.837274 1.4525049,-3.256112 h 0.1370742 q 0.1683366,0.399199 0.4761523,1.163928 0.3078156,0.762325 0.5362725,1.32024 0.2284569,0.555511 0.3366733,0.771944 -0.084168,-0.01443 -0.2933868,-0.01443 -0.163527,0 -0.2476953,0.01443 -0.00962,-0.03367 -0.024048,-0.07695 -0.012024,-0.04569 -0.036072,-0.12024 -0.021643,-0.07695 -0.052906,-0.170742 -0.031263,-0.09619 -0.069739,-0.209218 -0.038477,-0.115431 -0.091383,-0.262124 -0.050501,-0.146694 -0.1082164,-0.300602 -0.1611223,-0.0048 -0.3054108,-0.0048 -0.1442886,-0.0024 -0.2717435,-0.0024 -0.2813627,0 -0.6348697,0.0072 z"
         style="font-style:normal;font-variant:normal;font-weight:normal;font-stretch:normal;font-size:4.92505px;line-height:125%;font-family:'Linux Biolinum';-inkscape-font-specification:'Linux Biolinum';letter-spacing:0px;word-spacing:0px;fill:#000000;fill-opacity:1;stroke:none;stroke-width:0.185319px;stroke-linecap:butt;stroke-linejoin:miter;stroke-opacity:1"
         id="path2461" />
      <path
         d="m 6.0024044,21.761123 q 0,-0.63487 -0.048096,-0.985972 l 0.00962,-0.01443 q 0.088978,0.01443 0.2501001,0.01443 0.1635271,0 0.252505,-0.01443 l 0.00962,0.01443 q -0.048096,0.324649 -0.050501,0.985972 v 1.204809 q 0,0.63487 0.050501,0.985972 l -0.00962,0.01443 q -0.088978,-0.01443 -0.252505,-0.01443 -0.163527,0 -0.2501001,0.01443 l -0.00962,-0.01443 q 0.048096,-0.334268 0.048096,-0.985972 z"
         style="font-style:normal;font-variant:normal;font-weight:normal;font-stretch:normal;font-size:4.92505px;line-height:125%;font-family:'Linux Biolinum';-inkscape-font-specification:'Linux Biolinum';letter-spacing:0px;word-spacing:0px;fill:#000000;fill-opacity:1;stroke:none;stroke-width:0.185319px;stroke-linecap:butt;stroke-linejoin:miter;stroke-opacity:1"
         id="path2463" />
      <path
         d="m 8.6909816,20.929059 q -0.404008,0 -0.69499,0.346292 -0.2909819,0.346293 -0.2909819,1.065331 0,0.675751 0.3390781,1.060521 0.341483,0.382365 0.8152304,0.382365 0.4328657,0 0.6997996,-0.355912 0.2693387,-0.358317 0.2693387,-1.002806 0,-0.747895 -0.3006012,-1.120641 -0.3006012,-0.37515 -0.8368737,-0.37515 z m 1.6448894,1.402004 q 0,0.738276 -0.4352703,1.204809 Q 9.4653302,24 8.7607211,24 8.1066129,24 7.6521039,23.567135 7.1975949,23.134269 7.1975949,22.42485 q 0,-0.723847 0.4472946,-1.219238 0.4496993,-0.495391 1.1110219,-0.495391 0.6757515,0 1.1278557,0.452104 0.4521039,0.4497 0.4521039,1.168738 z"
         style="font-style:normal;font-variant:normal;font-weight:normal;font-stretch:normal;font-size:4.92505px;line-height:125%;font-family:'Linux Biolinum';-inkscape-font-specification:'Linux Biolinum';letter-spacing:0px;word-spacing:0px;fill:#000000;fill-opacity:1;stroke:none;stroke-width:0.185319px;stroke-linecap:butt;stroke-linejoin:miter;stroke-opacity:1"
         id="path2465" />
      <path
         d="m 12.149098,19.986373 q 0.202004,0.240481 0.495391,0.464129 l -0.07695,0.103407 q -0.305411,-0.141884 -0.521844,-0.305411 -0.245291,0.182765 -0.529058,0.305411 l -0.06733,-0.103407 q 0.211624,-0.158718 0.488177,-0.464129 z m 0.300601,2.609219 q -0.105812,-0.276553 -0.230862,-0.579559 -0.122645,-0.303006 -0.266934,-0.63487 h -0.0096 l -0.519439,1.212024 q 0.05772,0 0.245291,0.0048 0.187575,0.0048 0.269339,0.0048 0.209218,0 0.512224,-0.0072 z m -1.123046,0.230861 q -0.141884,0.348698 -0.247695,0.637275 -0.105812,0.288577 -0.161123,0.502605 -0.06012,-0.01443 -0.223647,-0.01443 -0.113026,0 -0.170741,0.01443 0.836873,-1.837274 1.452505,-3.256112 h 0.137074 q 0.168336,0.399199 0.476152,1.163928 0.307816,0.762325 0.536273,1.32024 0.228456,0.555511 0.336673,0.771944 -0.08417,-0.01443 -0.293387,-0.01443 -0.163527,0 -0.247695,0.01443 -0.0096,-0.03367 -0.02405,-0.07695 -0.01202,-0.04569 -0.03607,-0.12024 -0.02164,-0.07695 -0.0529,-0.170742 -0.03126,-0.09619 -0.06974,-0.209218 -0.03848,-0.115431 -0.09138,-0.262124 -0.0505,-0.146694 -0.108216,-0.300602 -0.161122,-0.0048 -0.305411,-0.0048 -0.144288,-0.0024 -0.271743,-0.0024 -0.281363,0 -0.63487,0.0072 z"
         style="font-style:normal;font-variant:normal;font-weight:normal;font-stretch:normal;font-size:4.92505px;line-height:125%;font-family:'Linux Biolinum';-inkscape-font-specification:'Linux Biolinum';letter-spacing:0px;word-spacing:0px;fill:#000000;fill-opacity:1;stroke:none;stroke-width:0.185319px;stroke-linecap:butt;stroke-linejoin:miter;stroke-opacity:1"
         id="path2467" />
      <path
         d="m 14.072945,20.775151 0.0096,-0.01443 q 0.03848,0.01443 0.206814,0.01443 0,0 0.06974,-0.0096 l 1.688176,2.185972 q 0.197195,0.254909 0.233267,0.271743 0.03607,0.01683 0.0481,-0.04569 0.0072,-0.03607 0.0096,-0.103407 v -1.313026 q 0,-0.63487 -0.0481,-0.985972 l 0.0096,-0.01443 q 0.08898,0.01443 0.170742,0.01443 0.08417,0 0.173146,-0.01443 l 0.0096,0.01443 q -0.02886,0.38477 -0.04569,0.805611 -0.01683,0.420842 -0.02164,0.6998 -0.0048,0.276553 -0.01683,0.788777 -0.0096,0.512225 -0.01443,0.779158 Q 16.545089,24 16.460921,24 16.338275,24 16.249297,23.882165 l -1.717034,-2.171543 q -0.07455,-0.0986 -0.110621,-0.134669 -0.03367,-0.03848 -0.05531,-0.02405 -0.02164,0.01202 -0.02405,0.06253 -0.0024,0.0481 -0.0024,0.175552 v 1.175951 q 0,0.63487 0.0481,0.985972 l -0.0096,0.01443 q -0.08898,-0.01443 -0.173147,-0.01443 -0.08176,0 -0.170741,0.01443 l -0.0096,-0.01443 q 0.06012,-0.572344 0.06974,-1.531863 0.01202,-0.959519 -0.02164,-1.64489 z"
         style="font-style:normal;font-variant:normal;font-weight:normal;font-stretch:normal;font-size:4.92505px;line-height:125%;font-family:'Linux Biolinum';-inkscape-font-specification:'Linux Biolinum';letter-spacing:0px;word-spacing:0px;fill:#000000;fill-opacity:1;stroke:none;stroke-width:0.185319px;stroke-linecap:butt;stroke-linejoin:miter;stroke-opacity:1"
         id="path2469" />
      <path
         d="m 18.04569,21.16954 v 1.161523 q 0.09379,0.0481 0.389579,0.0505 0.37996,0 0.56513,-0.170742 0.187575,-0.170741 0.187575,-0.579559 0,-0.211623 -0.06012,-0.351102 -0.05771,-0.139479 -0.165932,-0.209218 -0.108216,-0.06974 -0.218837,-0.09379 -0.110622,-0.02405 -0.25491,-0.02405 -0.25491,0 -0.348698,0.05291 -0.09379,0.0505 -0.09379,0.163527 z m -0.423247,0.591583 q 0,-0.63487 -0.0481,-0.985972 l 0.0096,-0.01443 q 0.08898,0.01443 0.250101,0.01443 0.07455,0 0.348697,-0.01683 0.276553,-0.01683 0.341483,-0.01683 0.324649,0 0.560321,0.08176 0.238076,0.07936 0.355911,0.216433 0.117836,0.134669 0.170742,0.276553 0.05531,0.139479 0.05531,0.290982 0,0.168337 -0.06733,0.334269 -0.06493,0.163527 -0.199599,0.31503 -0.132265,0.149098 -0.377556,0.242885 -0.242885,0.09379 -0.562725,0.09379 -0.262124,0 -0.413627,-0.0505 v 0.423246 q 0,0.63487 0.0505,0.985972 l -0.0096,0.01443 q -0.08898,-0.01443 -0.252505,-0.01443 -0.163527,0 -0.250101,0.01443 l -0.0096,-0.01443 q 0.0481,-0.334268 0.0481,-0.985972 z"
         style="font-style:normal;font-variant:normal;font-weight:normal;font-stretch:normal;font-size:4.92505px;line-height:125%;font-family:'Linux Biolinum';-inkscape-font-specification:'Linux Biolinum';letter-spacing:0px;word-spacing:0px;fill:#000000;fill-opacity:1;stroke:none;stroke-width:0.185319px;stroke-linecap:butt;stroke-linejoin:miter;stroke-opacity:1"
         id="path2471" />
      <path
         d="m 20.421642,21.761123 q 0,-0.63487 -0.0481,-0.985972 l 0.0096,-0.01443 q 0.08898,0.01443 0.2501,0.01443 0.163527,0 0.252505,-0.01443 l 0.0096,0.01443 q -0.0481,0.324649 -0.0505,0.985972 v 1.204809 q 0,0.63487 0.0505,0.985972 l -0.0096,0.01443 q -0.08898,-0.01443 -0.252505,-0.01443 -0.163527,0 -0.2501,0.01443 l -0.0096,-0.01443 q 0.0481,-0.334268 0.0481,-0.985972 z"
         style="font-style:normal;font-variant:normal;font-weight:normal;font-stretch:normal;font-size:4.92505px;line-height:125%;font-family:'Linux Biolinum';-inkscape-font-specification:'Linux Biolinum';letter-spacing:0px;word-spacing:0px;fill:#000000;fill-opacity:1;stroke:none;stroke-width:0.185319px;stroke-linecap:butt;stroke-linejoin:miter;stroke-opacity:1"
         id="path2473" />
      <path
         d="m 22.528256,21.761123 q 0,-0.577154 -0.03848,-0.709419 -0.295791,0 -0.545891,0.01683 -0.247696,0.01683 -0.348698,0.03367 l -0.101002,0.01683 -0.0096,-0.01924 q 0.01443,-0.113026 0,-0.324649 l 0.0096,-0.01443 q 0.117836,0.01443 0.295792,0.01443 h 1.899799 q 0.177956,0 0.295792,-0.01443 l 0.0096,0.01443 q -0.01443,0.211623 0,0.324649 l -0.0096,0.01924 q -0.334269,-0.06974 -0.995591,-0.06733 -0.03848,0.132265 -0.03848,0.709419 v 1.204809 q 0,0.63487 0.0505,0.985972 l -0.01202,0.01443 q -0.08898,-0.01443 -0.252505,-0.01443 -0.161123,0 -0.247696,0.01443 l -0.01202,-0.01443 q 0.0481,-0.334268 0.0505,-0.985972 z"
         style="font-style:normal;font-variant:normal;font-weight:normal;font-stretch:normal;font-size:4.92505px;line-height:125%;font-family:'Linux Biolinum';-inkscape-font-specification:'Linux Biolinum';letter-spacing:0px;word-spacing:0px;fill:#000000;fill-opacity:1;stroke:none;stroke-width:0.185319px;stroke-linecap:butt;stroke-linejoin:miter;stroke-opacity:1"
         id="path2475" />
    </g>
  </g>
</svg>
